HIERARCHY
ROOT Hips
{
	OFFSET -0.001795 -0.223333 0.028219
	CHANNELS 6 Xposition Yposition Zposition Zrotation Yrotation Xrotation 
	JOINT LeftUpLeg
	{
		OFFSET 0.069520 -0.091406 -0.006815
		CHANNELS 3 Zrotation Yrotation Xrotation
		JOINT LeftLeg
		{
			OFFSET 0.034277 -0.375199 -0.004496
			CHANNELS 3 Zrotation Yrotation Xrotation
			JOINT LeftFoot
			{
				OFFSET -0.013596 -0.397961 -0.043693
				CHANNELS 3 Zrotation Yrotation Xrotation
				JOINT LeftToe
				{
					OFFSET 0.026358 -0.055791 0.119288
					CHANNELS 3 Zrotation Yrotation Xrotation
					End Site
					{
						OFFSET 0.000000 0.000000 0.000000
					}
				}
			}
		}
	}
	JOINT RightUpLeg
	{
		OFFSET -0.067670 -0.090522 -0.004320
		CHANNELS 3 Zrotation Yrotation Xrotation
		JOINT RightLeg
		{
			OFFSET -0.038290 -0.382569 -0.008850
			CHANNELS 3 Zrotation Yrotation Xrotation
			JOINT RightFoot
			{
				OFFSET 0.015774 -0.398415 -0.042312
				CHANNELS 3 Zrotation Yrotation Xrotation
				JOINT RightToe
				{
					OFFSET -0.025372 -0.048144 0.123348
					CHANNELS 3 Zrotation Yrotation Xrotation
					End Site
					{
						OFFSET 0.000000 0.000000 0.000000
					}
				}
			}
		}
	}
	JOINT Spine
	{
		OFFSET -0.002533 0.108963 -0.026696
		CHANNELS 3 Zrotation Yrotation Xrotation
		JOINT Spine1
		{
			OFFSET 0.005487 0.135180 0.001092
			CHANNELS 3 Zrotation Yrotation Xrotation
			JOINT Spine2
			{
				OFFSET 0.001457 0.052922 0.025425
				CHANNELS 3 Zrotation Yrotation Xrotation
				JOINT Neck
				{
					OFFSET -0.002778 0.213870 -0.042857
					CHANNELS 3 Zrotation Yrotation Xrotation
					JOINT Head
					{
						OFFSET 0.005152 0.064970 0.051349
						CHANNELS 3 Zrotation Yrotation Xrotation
						End Site
						{
							OFFSET 0.000000 0.000000 0.000000
						}
					}
				}
				JOINT LeftShoulder
				{
					OFFSET 0.078845 0.121749 -0.034090
					CHANNELS 3 Zrotation Yrotation Xrotation
					JOINT LeftArm
					{
						OFFSET 0.090977 0.030469 -0.008868
						CHANNELS 3 Zrotation Yrotation Xrotation
						JOINT LeftForeArm
						{
							OFFSET 0.259612 -0.012772 -0.027456
							CHANNELS 3 Zrotation Yrotation Xrotation
							JOINT LeftHand
							{
								OFFSET 0.249234 0.008986 -0.001171
								CHANNELS 3 Zrotation Yrotation Xrotation
								End Site
								{
									OFFSET 0.000000 0.000000 0.000000
								}
							}
						}
					}
				}
				JOINT RightShoulder
				{
					OFFSET -0.081759 0.118833 -0.038615
					CHANNELS 3 Zrotation Yrotation Xrotation
					JOINT RightArm
					{
						OFFSET -0.096012 0.032551 -0.009143
						CHANNELS 3 Zrotation Yrotation Xrotation
						JOINT RightForeArm
						{
							OFFSET -0.253742 -0.013329 -0.021401
							CHANNELS 3 Zrotation Yrotation Xrotation
							JOINT RightHand
							{
								OFFSET -0.255298 0.007772 -0.005559
								CHANNELS 3 Zrotation Yrotation Xrotation
								End Site
								{
									OFFSET 0.000000 0.000000 0.000000
								}
							}
						}
					}
				}
			}
		}
	}
}
MOTION
Frames: 8
Frame Time: 0.050000
0.015814 0.865663 -0.184860 -0.537036 5.501043 1.111772 9.068907 -0.979813 -28.533878 -7.826607 1.347551 41.879960 5.529762 8.845473 -9.128075 0.000000 0.000000 0.000000 -8.449964 0.451547 -27.864018 11.628900 -5.459312 42.527059 -12.479544 -28.776373 3.701745 0.000000 0.000000 0.000000 -3.860568 -0.696205 30.862762 7.251465 -1.843407 -15.107892 1.947666 2.920283 24.397954 -0.203894 2.975303 -35.231634 0.000000 0.000000 0.000000 -29.164134 -12.402886 3.914536 -61.047990 -28.259262 6.042655 83.728164 -69.046042 -57.880118 0.000000 0.000000 0.000000 9.096620 23.664245 10.622381 55.335803 37.033765 11.086745 -67.898580 58.675413 -33.916577 0.000000 0.000000 0.000000 
0.015243 0.865069 -0.186108 -0.428918 5.505880 1.116838 9.078131 -0.989092 -28.785796 -7.979860 1.426000 42.122958 5.514320 8.870187 -8.968580 0.000000 0.000000 0.000000 -8.714278 0.384192 -28.320875 11.854856 -5.647800 43.083276 -12.492502 -28.689996 4.150267 0.000000 0.000000 0.000000 -3.399305 -0.835650 31.074059 6.842099 -1.690658 -15.281580 2.184511 2.947892 24.405189 -1.139931 3.413222 -35.274216 0.000000 0.000000 0.000000 -29.412865 -12.713217 4.105717 -61.124491 -28.536609 6.235608 84.277873 -71.596109 -60.740382 0.000000 0.000000 0.000000 9.047160 23.631523 10.598805 54.979644 35.978902 10.415308 -67.875840 60.853238 -35.506762 0.000000 0.000000 0.000000 
0.014640 0.864437 -0.187078 -0.292318 5.697284 1.296717 9.222544 -1.002558 -29.388498 -8.402184 1.609817 42.542729 5.424179 8.784582 -8.583785 0.000000 0.000000 0.000000 -9.069529 0.276996 -28.724276 12.178529 -5.898441 43.327545 -12.559047 -28.769186 4.349785 0.000000 0.000000 0.000000 -3.262182 -0.893955 31.166058 6.980268 -1.721336 -15.374559 2.224578 3.099578 24.132631 -2.103287 3.882408 -34.848604 0.000000 0.000000 0.000000 -29.609892 -12.599586 3.905074 -61.297783 -28.121181 6.100546 91.497698 -74.841519 -70.691178 0.000000 0.000000 0.000000 9.325843 23.153903 10.498972 55.269222 34.398118 9.684163 -69.700101 63.561685 -38.705405 0.000000 0.000000 0.000000 
0.014006 0.864536 -0.187788 -0.112867 5.658348 1.306101 9.434580 -0.957116 -29.528259 -8.969093 1.907410 42.600977 5.353558 8.768403 -8.169060 0.000000 0.000000 0.000000 -9.346871 0.209137 -28.836489 12.359063 -5.993797 43.400221 -12.522624 -28.674413 4.443602 0.000000 0.000000 0.000000 -3.222532 -0.904916 31.290276 7.149706 -1.721286 -15.973213 1.986788 3.330612 24.336743 -2.679900 4.184834 -34.704836 0.000000 0.000000 0.000000 -29.096085 -12.847653 3.994242 -61.728146 -28.445670 6.331983 97.204648 -76.233079 -77.650246 0.000000 0.000000 0.000000 10.369732 22.696161 10.591559 55.300947 33.126102 8.950874 -72.521007 64.673573 -41.484140 0.000000 0.000000 0.000000 
0.013433 0.864156 -0.188274 0.108054 5.476604 1.615508 9.372909 -0.985356 -30.208838 -9.159895 2.061626 43.103452 5.351828 8.999622 -7.595255 0.000000 0.000000 0.000000 -9.555590 0.171579 -29.479402 12.355051 -5.996551 43.814579 -12.481260 -28.561082 4.619102 0.000000 0.000000 0.000000 -3.365591 -0.828583 31.013071 7.033377 -1.678910 -16.028353 1.832068 3.091514 24.114099 -2.727733 4.152227 -34.621925 0.000000 0.000000 0.000000 -29.387868 -12.468065 3.855341 -62.493540 -29.128021 6.894683 100.049905 -76.603124 -80.676300 0.000000 0.000000 0.000000 10.682661 22.032287 10.331433 57.086933 32.322664 8.971788 -75.403959 64.964317 -43.779044 0.000000 0.000000 0.000000 
0.013026 0.865604 -0.188383 0.273365 5.209889 1.662206 9.117236 -1.027157 -30.366137 -8.968756 2.023898 43.296703 5.312307 9.191045 -6.798279 0.000000 0.000000 0.000000 -9.878894 0.115678 -29.497061 12.645830 -6.064840 43.613480 -12.341041 -28.219137 4.957553 0.000000 0.000000 0.000000 -3.587872 -0.724584 30.690523 7.359896 -1.733069 -16.625988 1.238752 3.130058 24.184558 -2.348397 3.966571 -34.123878 0.000000 0.000000 0.000000 -29.032147 -12.735069 4.064055 -63.699034 -31.235364 8.373442 92.623812 -75.220976 -71.931391 0.000000 0.000000 0.000000 11.962139 21.623105 10.447913 57.876551 32.355269 9.102186 -77.975113 62.192266 -43.183888 0.000000 0.000000 0.000000 
0.012633 0.868673 -0.187903 0.433366 4.803702 1.569338 9.051240 -0.978105 -29.821413 -8.740015 1.995218 43.537339 4.824027 7.838008 -7.312289 0.000000 0.000000 0.000000 -9.924397 0.153899 -28.966542 12.587608 -5.830189 42.839248 -12.127658 -27.799177 5.073479 0.000000 0.000000 0.000000 -3.678545 -0.627044 29.819227 7.174056 -1.649436 -17.007173 0.958351 2.377449 24.601737 -1.926141 3.629338 -33.888776 0.000000 0.000000 0.000000 -29.215958 -12.823458 4.533659 -64.486739 -33.972986 10.158285 90.270633 -71.958537 -65.905828 0.000000 0.000000 0.000000 12.494086 21.692985 10.444186 58.005795 33.163295 9.442159 -82.081142 56.772390 -41.493910 0.000000 0.000000 0.000000 
0.012349 0.874618 -0.186554 0.560473 3.991377 1.820167 9.160151 -0.854653 -29.177707 -8.455174 2.019079 43.275910 4.108573 6.072467 -7.427379 0.000000 0.000000 0.000000 -9.756807 0.287138 -28.503664 12.300899 -5.326199 41.479137 -11.762396 -27.026018 5.623203 0.000000 0.000000 0.000000 -3.426119 -0.586001 28.694126 6.600259 -1.379262 -18.270496 0.336853 1.235428 25.366750 -2.111420 3.498275 -34.060398 0.000000 0.000000 0.000000 -28.366096 -13.294464 5.485093 -64.264723 -38.768898 12.989152 89.856930 -66.408455 -59.326074 0.000000 0.000000 0.000000 13.269545 21.534422 10.282050 56.766380 34.643443 9.691536 -86.021459 52.148011 -40.311671 0.000000 0.000000 0.000000 
